<svg width="2880" height="2880" viewBox="0 0 2880 2880" fill="none" xmlns="http://www.w3.org/2000/svg">
<g clip-path="url(#clip0_3572_156)">
<mask id="mask0_3572_156" style="mask-type:luminance" maskUnits="userSpaceOnUse" x="0" y="0" width="2881" height="2880">
<path d="M2880.5 0H0.5V2880H2880.5V0Z" fill="white"/>
</mask>
<g mask="url(#mask0_3572_156)">
<path d="M1592.99 2880.05C2304.1 2880.05 2880.55 2303.6 2880.55 1592.49C2880.55 881.39 2304.1 304.929 1592.99 304.929C881.89 304.929 305.429 881.39 305.429 1592.49C305.429 2303.6 881.89 2880.05 1592.99 2880.05Z" fill="#111111"/>
<path d="M1378.4 2665.47C2089.5 2665.47 2665.97 2089 2665.97 1377.9C2665.97 666.796 2089.5 90.335 1378.4 90.335C667.296 90.335 90.835 666.796 90.835 1377.9C90.835 2089 667.296 2665.47 1378.4 2665.47Z" fill="#D9FF42" stroke="#111111" stroke-width="160.945"/>
<path d="M519.984 1163.17L519.623 1394.56" stroke="#111111" stroke-width="134.121" stroke-linecap="round" stroke-linejoin="round"/>
<path d="M895.563 1377.9V1753.44C895.563 2021.68 1861.24 2021.68 1861.24 1753.44V1377.9" fill="white"/>
<path d="M895.563 1377.9V1753.44C895.563 2021.68 1861.24 2021.68 1861.24 1753.44V1377.9" stroke="#111111" stroke-width="160.945" stroke-linejoin="round"/>
<path d="M1378.4 734.116L2236.77 1163.31L1378.4 1592.49L520.021 1163.31L1378.4 734.116Z" fill="white" stroke="#111111" stroke-width="160.945" stroke-linejoin="round"/>
<path d="M520.157 1666.46C594.654 1666.46 655.045 1606.07 655.045 1531.58C655.045 1457.08 594.654 1396.69 520.157 1396.69C445.661 1396.69 385.27 1457.08 385.27 1531.58C385.27 1606.07 445.661 1666.46 520.157 1666.46Z" fill="#D9FF42" stroke="#111111" stroke-width="89.9249"/>
</g>
</g>
<defs>
<clipPath id="clip0_3572_156">
<rect width="2880" height="2880" fill="white"/>
</clipPath>
</defs>
</svg>
