<svg width="454" height="43" viewBox="0 0 454 43" fill="none" xmlns="http://www.w3.org/2000/svg">
<rect width="454" height="43" fill="#D9D9D9"/>
<rect x="444" width="10" height="43" fill="black"/>
<rect width="10" height="43" fill="black"/>
<rect x="169" y="22.3853" width="27.4149" height="27.2978" transform="rotate(-45 169 22.3853)" fill="white"/>
<rect x="247" y="22.3853" width="27.4149" height="27.2978" transform="rotate(-45 247 22.3853)" fill="white"/>
<path d="M40.16 34H21.72V30.32L25.04 27.32C30.76 22.2 33.52 19.28 33.56 16.24C33.56 14.12 32.32 12.44 29.32 12.44C27.08 12.44 25.12 13.56 23.76 14.56L22.04 10.24C23.96 8.76 27.04 7.56 30.52 7.56C36.44 7.56 39.64 11 39.64 15.68C39.64 20.08 36.52 23.56 32.72 26.92L30.32 28.92V29H40.16V34Z" fill="black"/>
<path d="M432.16 34H413.72V30.32L417.04 27.32C422.76 22.2 425.52 19.28 425.56 16.24C425.56 14.12 424.32 12.44 421.32 12.44C419.08 12.44 417.12 13.56 415.76 14.56L414.04 10.24C415.96 8.76 419.04 7.56 422.52 7.56C428.44 7.56 431.64 11 431.64 15.68C431.64 20.08 428.52 23.56 424.72 26.92L422.32 28.92V29H432.16V34Z" fill="black"/>
<path d="M215.47 16L215.36 13.42C215.33 12.61 215.3 11.63 215.3 10.65H215.28C215.06 11.51 214.78 12.47 214.52 13.26L213.7 15.89H212.51L211.79 13.29C211.57 12.49 211.35 11.53 211.18 10.65H211.16C211.13 11.56 211.09 12.6 211.05 13.44L210.92 16H209.51L209.94 9.26H211.97L212.63 11.51C212.85 12.29 213.05 13.13 213.2 13.92H213.24C213.42 13.14 213.65 12.25 213.88 11.5L214.59 9.26H216.59L216.95 16H215.47ZM220.436 10.99C221.926 10.99 222.926 12.02 222.926 13.5C222.926 15.29 221.656 16.11 220.346 16.11C218.916 16.11 217.816 15.17 217.816 13.59C217.816 12 218.856 10.99 220.436 10.99ZM220.386 12.08C219.666 12.08 219.386 12.83 219.386 13.55C219.386 14.39 219.736 15.02 220.386 15.02C220.986 15.02 221.356 14.43 221.356 13.54C221.356 12.82 221.076 12.08 220.386 12.08ZM227.117 8.9H228.637V14.54C228.637 15.09 228.657 15.67 228.677 16H227.327L227.267 15.29H227.237C226.937 15.83 226.337 16.11 225.707 16.11C224.547 16.11 223.617 15.12 223.617 13.6C223.607 11.95 224.637 10.99 225.807 10.99C226.417 10.99 226.877 11.21 227.097 11.54H227.117V8.9ZM227.117 13.82V13.18C227.117 13.1 227.117 12.99 227.097 12.9C227.007 12.5 226.677 12.16 226.207 12.16C225.507 12.16 225.157 12.78 225.157 13.55C225.157 14.38 225.567 14.9 226.197 14.9C226.637 14.9 226.997 14.6 227.087 14.17C227.107 14.06 227.117 13.94 227.117 13.82ZM234.464 11.11V14.43C234.464 15.07 234.484 15.59 234.504 16H233.184L233.114 15.31H233.084C232.894 15.61 232.434 16.11 231.554 16.11C230.554 16.11 229.834 15.49 229.834 13.98V11.11H231.354V13.74C231.354 14.45 231.584 14.88 232.124 14.88C232.544 14.88 232.794 14.59 232.884 14.35C232.924 14.26 232.944 14.15 232.944 14.02V11.11H234.464ZM235.684 16V8.9H237.204V16H235.684ZM242.758 14.04H239.608C239.648 14.67 240.278 14.97 240.988 14.97C241.508 14.97 241.928 14.9 242.338 14.76L242.538 15.79C242.038 16 241.428 16.1 240.768 16.1C239.108 16.1 238.158 15.14 238.158 13.61C238.158 12.37 238.928 11 240.628 11C242.208 11 242.808 12.23 242.808 13.44C242.808 13.7 242.778 13.93 242.758 14.04ZM239.598 13H241.398C241.398 12.63 241.238 12.01 240.538 12.01C239.898 12.01 239.638 12.6 239.598 13Z" fill="black"/>
<path d="M229.9 32H222.985V30.62L224.23 29.495C226.375 27.575 227.41 26.48 227.425 25.34C227.425 24.545 226.96 23.915 225.835 23.915C224.995 23.915 224.26 24.335 223.75 24.71L223.105 23.09C223.825 22.535 224.98 22.085 226.285 22.085C228.505 22.085 229.705 23.375 229.705 25.13C229.705 26.78 228.535 28.085 227.11 29.345L226.21 30.095V30.125H229.9V32Z" fill="black"/>
<path d="M412.277 38V35.2133C412.482 35.1798 412.784 35.1547 413.127 35.1547C413.546 35.1547 413.84 35.2175 414.041 35.3768C414.213 35.5109 414.305 35.712 414.305 35.9718C414.305 36.328 414.049 36.5752 413.806 36.6632V36.6758C414.003 36.7554 414.112 36.9398 414.183 37.1996C414.271 37.5223 414.355 37.891 414.41 38H413.756C413.714 37.9162 413.643 37.6899 413.563 37.3421C413.483 36.9859 413.362 36.8937 413.098 36.8895H412.909V38H412.277ZM412.909 35.6533V36.4286H413.161C413.479 36.4286 413.668 36.2693 413.668 36.0221C413.668 35.7665 413.492 35.6324 413.198 35.6324C413.043 35.6324 412.955 35.6408 412.909 35.6533ZM415.989 35.1253C416.856 35.1253 417.33 35.7749 417.33 36.5585C417.33 37.4888 416.772 38.0461 415.943 38.0461C415.109 38.0461 414.614 37.4133 414.614 36.6046C414.614 35.7581 415.159 35.1253 415.989 35.1253ZM415.976 35.6324C415.54 35.6324 415.289 36.043 415.289 36.592C415.289 37.1493 415.549 37.539 415.976 37.539C416.408 37.539 416.655 37.1284 416.655 36.5794C416.655 36.0682 416.416 35.6324 415.976 35.6324ZM418.335 38H417.748V35.1756H418.494L419.08 36.2107C419.248 36.5082 419.412 36.8602 419.541 37.1787H419.55C419.512 36.8057 419.5 36.4244 419.5 35.997V35.1756H420.086V38H419.416L418.812 36.9105C418.645 36.6088 418.456 36.2442 418.322 35.9131H418.305C418.326 36.2903 418.335 36.6884 418.335 37.1493V38ZM422.108 37.275H421.299L421.098 38H420.44L421.299 35.1756H422.137L423.017 38H422.326L422.108 37.275ZM421.391 36.7973H422.016L421.84 36.1981C421.789 36.0305 421.739 35.821 421.697 35.6533H421.689C421.647 35.821 421.605 36.0347 421.559 36.1981L421.391 36.7973ZM423.978 38H423.391V35.1756H424.137L424.724 36.2107C424.891 36.5082 425.055 36.8602 425.185 37.1787H425.193C425.155 36.8057 425.143 36.4244 425.143 35.997V35.1756H425.729V38H425.059L424.456 36.9105C424.288 36.6088 424.099 36.2442 423.965 35.9131H423.948C423.969 36.2903 423.978 36.6884 423.978 37.1493V38ZM427.023 37.8659L427.152 37.3421C427.32 37.4301 427.588 37.5181 427.861 37.5181C428.154 37.5181 428.309 37.3966 428.309 37.2122C428.309 37.0362 428.175 36.9356 427.835 36.8183C427.366 36.6507 427.056 36.3909 427.056 35.9802C427.056 35.4983 427.463 35.1337 428.125 35.1337C428.447 35.1337 428.678 35.1966 428.845 35.2762L428.703 35.7874C428.594 35.733 428.389 35.6533 428.116 35.6533C427.84 35.6533 427.706 35.7832 427.706 35.9257C427.706 36.1059 427.861 36.1855 428.229 36.3238C428.728 36.5082 428.959 36.768 428.959 37.1661C428.959 37.6396 428.598 38.0419 427.823 38.0419C427.5 38.0419 427.182 37.9539 427.023 37.8659ZM430.861 37.275H430.052L429.851 38H429.193L430.052 35.1756H430.891L431.771 38H431.079L430.861 37.275ZM430.145 36.7973H430.769L430.593 36.1981C430.543 36.0305 430.492 35.821 430.451 35.6533H430.442C430.4 35.821 430.358 36.0347 430.312 36.1981L430.145 36.7973ZM432.346 38V35.712H431.583V35.1756H433.754V35.712H432.983V38H432.346Z" fill="black"/>
<path d="M20.2766 38V35.2133C20.4819 35.1798 20.7836 35.1547 21.1272 35.1547C21.5463 35.1547 21.8396 35.2175 22.0408 35.3768C22.2126 35.5109 22.3048 35.712 22.3048 35.9718C22.3048 36.328 22.0491 36.5752 21.8061 36.6632V36.6758C22.003 36.7554 22.112 36.9398 22.1832 37.1996C22.2712 37.5223 22.355 37.891 22.4095 38H21.7558C21.7139 37.9162 21.6427 37.6899 21.563 37.3421C21.4834 36.9859 21.3619 36.8937 21.0979 36.8895H20.9093V38H20.2766ZM20.9093 35.6533V36.4286H21.1608C21.4792 36.4286 21.6678 36.2693 21.6678 36.0221C21.6678 35.7665 21.4918 35.6324 21.1985 35.6324C21.0434 35.6324 20.9554 35.6408 20.9093 35.6533ZM23.9888 35.1253C24.8562 35.1253 25.3297 35.7749 25.3297 36.5585C25.3297 37.4888 24.7724 38.0461 23.9427 38.0461C23.1088 38.0461 22.6143 37.4133 22.6143 36.6046C22.6143 35.7581 23.1591 35.1253 23.9888 35.1253ZM23.9762 35.6324C23.5404 35.6324 23.289 36.043 23.289 36.592C23.289 37.1493 23.5488 37.539 23.9762 37.539C24.4078 37.539 24.6551 37.1284 24.6551 36.5794C24.6551 36.0682 24.4162 35.6324 23.9762 35.6324ZM26.3346 38H25.7479V35.1756H26.4938L27.0805 36.2107C27.2481 36.5082 27.4115 36.8602 27.5414 37.1787H27.5498C27.5121 36.8057 27.4995 36.4244 27.4995 35.997V35.1756H28.0862V38H27.4157L26.8123 36.9105C26.6447 36.6088 26.4561 36.2442 26.322 35.9131H26.3053C26.3262 36.2903 26.3346 36.6884 26.3346 37.1493V38ZM30.1078 37.275H29.2991L29.0979 38H28.44L29.2991 35.1756H30.1372L31.0172 38H30.3257L30.1078 37.275ZM29.3913 36.7973H30.0156L29.8396 36.1981C29.7893 36.0305 29.7391 35.821 29.6972 35.6533H29.6888C29.6469 35.821 29.605 36.0347 29.5589 36.1981L29.3913 36.7973ZM31.9778 38H31.3912V35.1756H32.1371L32.7237 36.2107C32.8913 36.5082 33.0548 36.8602 33.1847 37.1787H33.1931C33.1553 36.8057 33.1428 36.4244 33.1428 35.997V35.1756H33.7294V38H33.059L32.4555 36.9105C32.2879 36.6088 32.0993 36.2442 31.9653 35.9131H31.9485C31.9694 36.2903 31.9778 36.6884 31.9778 37.1493V38ZM35.0225 37.8659L35.1524 37.3421C35.3201 37.4301 35.5882 37.5181 35.8606 37.5181C36.154 37.5181 36.309 37.3966 36.309 37.2122C36.309 37.0362 36.1749 36.9356 35.8355 36.8183C35.3661 36.6507 35.0561 36.3909 35.0561 35.9802C35.0561 35.4983 35.4625 35.1337 36.1246 35.1337C36.4473 35.1337 36.6778 35.1966 36.8454 35.2762L36.7029 35.7874C36.594 35.733 36.3886 35.6533 36.1162 35.6533C35.8397 35.6533 35.7056 35.7832 35.7056 35.9257C35.7056 36.1059 35.8606 36.1855 36.2294 36.3238C36.7281 36.5082 36.9585 36.768 36.9585 37.1661C36.9585 37.6396 36.5981 38.0419 35.8229 38.0419C35.5002 38.0419 35.1818 37.9539 35.0225 37.8659ZM38.8612 37.275H38.0524L37.8513 38H37.1934L38.0524 35.1756H38.8905L39.7705 38H39.0791L38.8612 37.275ZM38.1446 36.7973H38.769L38.593 36.1981C38.5427 36.0305 38.4924 35.821 38.4505 35.6533H38.4421C38.4002 35.821 38.3583 36.0347 38.3122 36.1981L38.1446 36.7973ZM40.3456 38V35.712H39.5829V35.1756H41.7536V35.712H40.9826V38H40.3456Z" fill="black"/>
</svg>
