<svg width="454" height="43" viewBox="0 0 454 43" fill="none" xmlns="http://www.w3.org/2000/svg">
<rect width="454" height="43" fill="#D9D9D9"/>
<rect x="444" width="10" height="43" fill="black"/>
<rect width="10" height="43" fill="black"/>
<path d="M29.44 34V13.4H29.36L24.4 15.76L23.4 11.2L30.32 8H35.32V34H29.44Z" fill="black"/>
<path d="M421.44 34V13.4H421.36L416.4 15.76L415.4 11.2L422.32 8H427.32V34H421.44Z" fill="black"/>
<circle cx="226.5" cy="21.5" r="16.5" fill="white"/>
<path d="M215.47 16L215.36 13.42C215.33 12.61 215.3 11.63 215.3 10.65H215.28C215.06 11.51 214.78 12.47 214.52 13.26L213.7 15.89H212.51L211.79 13.29C211.57 12.49 211.35 11.53 211.18 10.65H211.16C211.13 11.56 211.09 12.6 211.05 13.44L210.92 16H209.51L209.94 9.26H211.97L212.63 11.51C212.85 12.29 213.05 13.13 213.2 13.92H213.24C213.42 13.14 213.65 12.25 213.88 11.5L214.59 9.26H216.59L216.95 16H215.47ZM220.436 10.99C221.926 10.99 222.926 12.02 222.926 13.5C222.926 15.29 221.656 16.11 220.346 16.11C218.916 16.11 217.816 15.17 217.816 13.59C217.816 12 218.856 10.99 220.436 10.99ZM220.386 12.08C219.666 12.08 219.386 12.83 219.386 13.55C219.386 14.39 219.736 15.02 220.386 15.02C220.986 15.02 221.356 14.43 221.356 13.54C221.356 12.82 221.076 12.08 220.386 12.08ZM227.117 8.9H228.637V14.54C228.637 15.09 228.657 15.67 228.677 16H227.327L227.267 15.29H227.237C226.937 15.83 226.337 16.11 225.707 16.11C224.547 16.11 223.617 15.12 223.617 13.6C223.607 11.95 224.637 10.99 225.807 10.99C226.417 10.99 226.877 11.21 227.097 11.54H227.117V8.9ZM227.117 13.82V13.18C227.117 13.1 227.117 12.99 227.097 12.9C227.007 12.5 226.677 12.16 226.207 12.16C225.507 12.16 225.157 12.78 225.157 13.55C225.157 14.38 225.567 14.9 226.197 14.9C226.637 14.9 226.997 14.6 227.087 14.17C227.107 14.06 227.117 13.94 227.117 13.82ZM234.464 11.11V14.43C234.464 15.07 234.484 15.59 234.504 16H233.184L233.114 15.31H233.084C232.894 15.61 232.434 16.11 231.554 16.11C230.554 16.11 229.834 15.49 229.834 13.98V11.11H231.354V13.74C231.354 14.45 231.584 14.88 232.124 14.88C232.544 14.88 232.794 14.59 232.884 14.35C232.924 14.26 232.944 14.15 232.944 14.02V11.11H234.464ZM235.684 16V8.9H237.204V16H235.684ZM242.758 14.04H239.608C239.648 14.67 240.278 14.97 240.988 14.97C241.508 14.97 241.928 14.9 242.338 14.76L242.538 15.79C242.038 16 241.428 16.1 240.768 16.1C239.108 16.1 238.158 15.14 238.158 13.61C238.158 12.37 238.928 11 240.628 11C242.208 11 242.808 12.23 242.808 13.44C242.808 13.7 242.778 13.93 242.758 14.04ZM239.598 13H241.398C241.398 12.63 241.238 12.01 240.538 12.01C239.898 12.01 239.638 12.6 239.598 13Z" fill="black"/>
<path d="M225.88 32V24.275H225.85L223.99 25.16L223.615 23.45L226.21 22.25H228.085V32H225.88Z" fill="black"/>
<path d="M428 12.2766L430.787 12.2766C430.82 12.4819 430.845 12.7836 430.845 13.1272C430.845 13.5463 430.782 13.8396 430.623 14.0408C430.489 14.2126 430.288 14.3048 430.028 14.3048C429.672 14.3048 429.425 14.0491 429.337 13.8061L429.324 13.8061C429.245 14.003 429.06 14.112 428.8 14.1832C428.478 14.2712 428.109 14.355 428 14.4095L428 13.7558C428.084 13.7139 428.31 13.6427 428.658 13.563C429.014 13.4834 429.106 13.3619 429.11 13.0979L429.11 12.9093L428 12.9093L428 12.2766ZM430.347 12.9093L429.571 12.9093L429.571 13.1608C429.571 13.4792 429.731 13.6678 429.978 13.6678C430.234 13.6678 430.368 13.4918 430.368 13.1985C430.368 13.0434 430.359 12.9554 430.347 12.9093ZM430.875 15.9888C430.875 16.8562 430.225 17.3297 429.442 17.3297C428.511 17.3297 427.954 16.7724 427.954 15.9427C427.954 15.1088 428.587 14.6143 429.395 14.6143C430.242 14.6143 430.875 15.1591 430.875 15.9888ZM430.368 15.9762C430.368 15.5404 429.957 15.289 429.408 15.289C428.851 15.289 428.461 15.5488 428.461 15.9762C428.461 16.4078 428.872 16.6551 429.421 16.6551C429.932 16.6551 430.368 16.4162 430.368 15.9762ZM428 18.3346L428 17.7479L430.824 17.7479L430.824 18.4938L429.789 19.0805C429.492 19.2481 429.14 19.4115 428.821 19.5414L428.821 19.5498C429.194 19.5121 429.576 19.4995 430.003 19.4995L430.824 19.4995L430.824 20.0862L428 20.0862L428 19.4157L429.09 18.8123C429.391 18.6447 429.756 18.4561 430.087 18.322L430.087 18.3053C429.71 18.3262 429.312 18.3346 428.851 18.3346L428 18.3346ZM428.725 22.1078L428.725 21.2991L428 21.0979L428 20.44L430.824 21.2991L430.824 22.1372L428 23.0172L428 22.3257L428.725 22.1078ZM429.203 21.3913L429.203 22.0156L429.802 21.8396C429.97 21.7893 430.179 21.7391 430.347 21.6972L430.347 21.6888C430.179 21.6469 429.965 21.605 429.802 21.5589L429.203 21.3913ZM428 23.9778L428 23.3912L430.824 23.3912L430.824 24.1371L429.789 24.7237C429.492 24.8913 429.14 25.0548 428.821 25.1847L428.821 25.1931C429.194 25.1553 429.576 25.1428 430.003 25.1428L430.824 25.1428L430.824 25.7294L428 25.7294L428 25.059L429.09 24.4555C429.391 24.2879 429.756 24.0993 430.087 23.9653L430.087 23.9485C429.71 23.9694 429.312 23.9778 428.851 23.9778L428 23.9778ZM428.134 27.0225L428.658 27.1524C428.57 27.3201 428.482 27.5882 428.482 27.8606C428.482 28.154 428.603 28.309 428.788 28.309C428.964 28.309 429.064 28.1749 429.182 27.8355C429.349 27.3661 429.609 27.0561 430.02 27.0561C430.502 27.0561 430.866 27.4625 430.866 28.1246C430.866 28.4473 430.803 28.6778 430.724 28.8454L430.213 28.7029C430.267 28.594 430.347 28.3886 430.347 28.1162C430.347 27.8397 430.217 27.7056 430.074 27.7056C429.894 27.7056 429.814 27.8606 429.676 28.2294C429.492 28.7281 429.232 28.9585 428.834 28.9585C428.36 28.9585 427.958 28.5981 427.958 27.8229C427.958 27.5002 428.046 27.1818 428.134 27.0225ZM428.725 30.8612L428.725 30.0524L428 29.8513L428 29.1934L430.824 30.0524L430.824 30.8905L428 31.7705L428 31.0791L428.725 30.8612ZM429.203 30.1446L429.203 30.769L429.802 30.593C429.97 30.5427 430.179 30.4924 430.347 30.4505L430.347 30.4421C430.179 30.4002 429.965 30.3583 429.802 30.3122L429.203 30.1446ZM428 32.3456L430.288 32.3456L430.288 31.5829L430.824 31.5829L430.824 33.7536L430.288 33.7536L430.288 32.9826L428 32.9826L428 32.3456Z" fill="black"/>
<path d="M36 12.2766L38.7867 12.2766C38.8202 12.4819 38.8453 12.7836 38.8453 13.1272C38.8453 13.5463 38.7825 13.8396 38.6232 14.0408C38.4891 14.2126 38.288 14.3048 38.0282 14.3048C37.672 14.3048 37.4248 14.0491 37.3368 13.8061L37.3242 13.8061C37.2446 14.003 37.0602 14.112 36.8004 14.1832C36.4777 14.2712 36.109 14.355 36 14.4095L36 13.7558C36.0838 13.7139 36.3101 13.6427 36.6579 13.563C37.0141 13.4834 37.1063 13.3619 37.1105 13.0979L37.1105 12.9093L36 12.9093L36 12.2766ZM38.3467 12.9093L37.5714 12.9093L37.5714 13.1608C37.5714 13.4792 37.7307 13.6678 37.9779 13.6678C38.2335 13.6678 38.3676 13.4918 38.3676 13.1985C38.3676 13.0434 38.3592 12.9554 38.3467 12.9093ZM38.8747 15.9888C38.8747 16.8562 38.2251 17.3297 37.4415 17.3297C36.5112 17.3297 35.9539 16.7724 35.9539 15.9427C35.9539 15.1088 36.5867 14.6143 37.3954 14.6143C38.2419 14.6143 38.8747 15.1591 38.8747 15.9888ZM38.3676 15.9762C38.3676 15.5404 37.957 15.289 37.408 15.289C36.8507 15.289 36.461 15.5488 36.461 15.9762C36.461 16.4078 36.8716 16.6551 37.4206 16.6551C37.9318 16.6551 38.3676 16.4162 38.3676 15.9762ZM36 18.3346L36 17.7479L38.8244 17.7479L38.8244 18.4938L37.7893 19.0805C37.4918 19.2481 37.1398 19.4115 36.8213 19.5414L36.8213 19.5498C37.1943 19.5121 37.5756 19.4995 38.003 19.4995L38.8244 19.4995L38.8244 20.0862L36 20.0862L36 19.4157L37.0895 18.8123C37.3912 18.6447 37.7558 18.4561 38.0869 18.322L38.0869 18.3053C37.7097 18.3262 37.3116 18.3346 36.8507 18.3346L36 18.3346ZM36.725 22.1078L36.725 21.2991L36 21.0979L36 20.44L38.8244 21.2991L38.8244 22.1372L36 23.0172L36 22.3257L36.725 22.1078ZM37.2027 21.3913L37.2027 22.0156L37.8019 21.8396C37.9695 21.7893 38.179 21.7391 38.3467 21.6972L38.3467 21.6888C38.179 21.6469 37.9653 21.605 37.8019 21.5589L37.2027 21.3913ZM36 23.9778L36 23.3912L38.8244 23.3912L38.8244 24.1371L37.7893 24.7237C37.4918 24.8913 37.1398 25.0548 36.8213 25.1847L36.8213 25.1931C37.1943 25.1553 37.5756 25.1428 38.003 25.1428L38.8244 25.1428L38.8244 25.7294L36 25.7294L36 25.059L37.0895 24.4555C37.3912 24.2879 37.7558 24.0993 38.0869 23.9653L38.0869 23.9485C37.7097 23.9694 37.3116 23.9778 36.8507 23.9778L36 23.9778ZM36.1341 27.0225L36.6579 27.1524C36.5699 27.3201 36.4819 27.5882 36.4819 27.8606C36.4819 28.154 36.6034 28.309 36.7878 28.309C36.9638 28.309 37.0644 28.1749 37.1817 27.8355C37.3493 27.3661 37.6091 27.0561 38.0198 27.0561C38.5017 27.0561 38.8663 27.4625 38.8663 28.1246C38.8663 28.4473 38.8034 28.6778 38.7238 28.8454L38.2126 28.7029C38.267 28.594 38.3467 28.3886 38.3467 28.1162C38.3467 27.8397 38.2168 27.7056 38.0743 27.7056C37.8941 27.7056 37.8145 27.8606 37.6762 28.2294C37.4918 28.7281 37.232 28.9585 36.8339 28.9585C36.3604 28.9585 35.9581 28.5981 35.9581 27.8229C35.9581 27.5002 36.0461 27.1818 36.1341 27.0225ZM36.725 30.8612L36.725 30.0524L36 29.8513L36 29.1934L38.8244 30.0524L38.8244 30.8905L36 31.7705L36 31.0791L36.725 30.8612ZM37.2027 30.1446L37.2027 30.769L37.8019 30.593C37.9695 30.5427 38.179 30.4924 38.3467 30.4505L38.3467 30.4421C38.179 30.4002 37.9653 30.3583 37.8019 30.3122L37.2027 30.1446ZM36 32.3456L38.288 32.3456L38.288 31.5829L38.8244 31.5829L38.8244 33.7536L38.288 33.7536L38.288 32.9826L36 32.9826L36 32.3456Z" fill="black"/>
</svg>
